{
  "accessors": [
    {
      "bufferView": 0,
      "componentType": 5125,
      "count": 5718,
      "type": "SCALAR"
    },
    {
      "bufferView": 1,
      "componentType": 5126,
      "count": 2387,
      "max": [
        5.21843147277832,
        2.55425786972046,
        15.5217342376709
      ],
      "min": [
        -2.93381524085999,
        -2.55425763130188,
        0.0
      ],
      "type": "VEC3"
    },
    {
      "bufferView": 2,
      "componentType": 5126,
      "count": 2387,
      "type": "VEC3"
    },
    {
      "bufferView": 3,
      "componentType": 5126,
      "count": 2387,
      "type": "VEC2"
    }
  ],
  "asset": {
    "generator": "Adobe Substance 3D Painter 7.2.2",
    "version": "2.0"
  },
  "bufferViews": [
    {
      "buffer": 0,
      "byteLength": 22872,
      "target": 34963
    },
    {
      "buffer": 0,
      "byteLength": 28644,
      "byteOffset": 22872,
      "target": 34962
    },
    {
      "buffer": 0,
      "byteLength": 28644,
      "byteOffset": 51516,
      "target": 34962
    },
    {
      "buffer": 0,
      "byteLength": 19096,
      "byteOffset": 80160,
      "target": 34962
    }
  ],
  "buffers": [
    {
      "byteLength": 99256,
      "uri": "Lantern01.bin"
    }
  ],
  "images": [
    {
      "uri": "Lantern01_baseColor.png"
    },
    {
      "uri": "Lantern01_occlusionRoughnessMetallic.png"
    },
    {
      "uri": "Lantern01_normal.png"
    },
    {
      "uri": "Lantern01_emissive.png"
    }
  ],
  "materials": [
    {
      "alphaMode": "OPAQUE",
      "emissiveFactor": [
        1.0,
        1.0,
        1.0
      ],
      "emissiveTexture": {
        "index": 3
      },
      "name": "Lantern01",
      "normalTexture": {
        "index": 2
      },
      "occlusionTexture": {
        "index": 1
      },
      "pbrMetallicRoughness": {
        "baseColorTexture": {
          "index": 0
        },
        "metallicRoughnessTexture": {
          "index": 1
        }
      }
    }
  ],
  "meshes": [
    {
      "name": "Lantern01",
      "primitives": [
        {
          "attributes": {
            "NORMAL": 2,
            "POSITION": 1,
            "TEXCOORD_0": 3
          },
          "indices": 0,
          "material": 0,
          "mode": 4
        }
      ]
    }
  ],
  "nodes": [
    {
      "children": [
        1
      ],
      "name": "RootNode"
    },
    {
      "children": [
        2
      ],
      "name": "Lantern01",
      "rotation": [
        -0.70710676908493,
        0.0,
        0.0,
        0.70710676908493
      ]
    },
    {
      "mesh": 0,
      "name": "Lantern01"
    }
  ],
  "samplers": [
    {
      "magFilter": 9729,
      "minFilter": 9985,
      "wrapS": 10497,
      "wrapT": 10497
    }
  ],
  "scene": 0,
  "scenes": [
    {
      "name": "Scene",
      "nodes": [
        0
      ]
    }
  ],
  "textures": [
    {
      "sampler": 0,
      "source": 0
    },
    {
      "sampler": 0,
      "source": 1
    },
    {
      "sampler": 0,
      "source": 2
    },
    {
      "sampler": 0,
      "source": 3
    }
  ]
}